# xmcd
#
# Track frame offsets:
#	150
#	11730
#	32620
#	56760
#	80860
#	100755
#	128270
#	144385
#	186145
#	208270
#	221485
#	240970
#	258255
#	282265
#
# Disc length: 4013 seconds
#
# Revision: 1
# Processed by: cddbd v1.5.1PL0 Copyright (c) Steve Scherf et al.
# Submitted via: EasyCDDAExtractor 5.1.0
#
DISCID=c10fab0e
DTITLE=Ozzy Osbourne - Dane Country Coliseum Madison WM 08-03-84
DYEAR=1984
DGENRE=Hard Rock
TTITLE0=Intro
TTITLE1=I Don't Know
TTITLE2=Mr Crowley
TTITLE3=Rock and Roll Rebel
TTITLE4=Bark At The moon
TTITLE5=Revelation (Mother Earth)
TTITLE6=Steal Away (The Night)
TTITLE7=Suicide Solution Incl Guitar Solo
TTITLE8=Journey To The Centre Of Eternity
TTITLE9=Drum Solo
TTITLE10=Flying High again
TTITLE11=Iron Man
TTITLE12=Crazy Train
TTITLE13=Paranoid
EXTD=
EXTT0=
EXTT1=
EXTT2=
EXTT3=
EXTT4=
EXTT5=
EXTT6=
EXTT7=
EXTT8=
EXTT9=
EXTT10=
EXTT11=
EXTT12=
EXTT13=
PLAYORDER=
